# Blender v2.93.5 OBJ File: 'AeroportOK.blend'
# www.blender.org
mtllib TurnVarfAlb.mtl
o TurnVarfAlb_Plane.023
v 34.447887 32.185833 -59.372444
v 33.526306 31.835981 -61.808487
v 34.522976 31.835981 -59.434822
v 34.001942 34.713669 -58.868805
v 34.021973 34.377319 -58.950089
v 34.073044 34.377319 -58.929222
v 37.016056 34.694534 -57.743637
v 36.947769 34.361866 -57.795013
v 37.025669 34.361866 -57.826843
v 33.904354 34.718334 -58.920898
v 32.789608 34.380791 -61.808487
v 33.976799 34.380791 -58.981079
v 34.169842 33.481354 -59.141449
v 33.334637 32.498074 -61.808487
v 34.380875 32.498074 -59.316772
v 34.039513 34.088577 -59.033180
v 32.998802 33.658161 -61.808487
v 34.131889 33.658161 -59.109924
v 39.910961 34.711372 -59.002510
v 39.831017 34.375233 -58.989609
v 39.860958 34.375233 -59.060921
v 41.073357 34.720043 -61.906700
v 41.019241 34.382172 -61.857162
v 40.998875 34.382172 -61.905663
v 39.775921 34.729439 -64.805168
v 39.802494 34.390076 -64.713432
v 39.727673 34.390076 -64.744011
v 36.785568 34.719536 -65.955208
v 36.881474 34.381893 -65.891884
v 36.798119 34.381893 -65.870522
v 33.878716 34.730934 -64.696526
v 33.978020 34.390945 -64.698631
v 33.952232 34.390945 -64.637215
v 34.134598 34.086140 -58.981522
v 34.176517 33.657238 -59.078484
v 34.225262 33.657238 -59.058563
v 37.033993 34.073868 -57.898872
v 36.971901 33.649658 -57.974594
v 37.046253 33.649658 -58.004974
v 39.817673 34.084240 -59.111496
v 39.725330 33.655613 -59.117920
v 39.753914 33.655613 -59.185982
v 40.934399 34.089672 -61.904770
v 40.858860 33.658840 -61.857162
v 40.839420 33.658840 -61.903458
v 39.685909 34.096287 -64.691063
v 39.695797 33.663544 -64.583900
v 39.624386 33.663544 -64.613075
v 36.808987 34.089584 -65.797203
v 36.905964 33.659031 -65.709602
v 36.824993 33.659031 -65.689217
v 34.015877 34.096615 -64.585869
v 34.134243 33.663078 -64.568855
v 34.109627 33.663078 -64.510231
v 34.262505 33.481056 -59.090210
v 34.424618 32.501251 -59.284599
v 34.469627 32.501251 -59.266205
v 37.051285 33.475407 -58.048561
v 37.010639 32.506317 -58.262894
v 37.079292 32.506317 -58.290947
v 39.727718 33.479546 -59.216583
v 39.555672 32.500362 -59.323898
v 39.582062 32.500362 -59.386749
v 40.800407 33.481861 -61.902916
v 40.601387 32.497627 -61.857162
v 40.583439 32.497627 -61.899910
v 39.599113 33.485786 -64.581047
v 39.524506 32.497200 -64.375938
v 39.458569 32.497200 -64.402885
v 36.831570 33.482170 -65.644859
v 36.945282 32.498581 -65.416985
v 36.868134 32.498581 -65.398170
v 34.148136 33.484989 -64.479164
v 34.385025 32.494583 -64.360512
v 34.362297 32.494583 -64.306374
v 34.535400 32.190117 -59.322090
v 34.566219 31.841501 -59.402229
v 34.609093 31.841501 -59.384712
v 37.088181 32.198582 -58.367920
v 37.032749 31.853785 -58.427437
v 37.098148 31.853785 -58.454163
v 39.535805 32.189423 -59.440788
v 39.458839 31.841032 -59.441460
v 39.483978 31.841032 -59.501328
v 40.514542 32.185085 -61.898949
v 40.454441 31.834898 -61.857162
v 40.437344 31.834898 -61.897881
v 39.413940 32.183273 -64.346306
v 39.426746 31.831533 -64.257256
v 39.363934 31.831533 -64.282921
v 36.879742 32.186241 -65.319832
v 36.967720 31.836285 -65.249992
v 36.892754 31.836285 -65.232063
v 34.430309 32.180077 -64.251518
v 34.528152 31.827692 -64.241600
v 34.506508 31.827692 -64.190041
v 34.590485 31.521452 -59.490906
v 33.710186 31.200787 -61.808487
v 34.659302 31.200787 -59.548080
v 34.675346 31.528082 -59.441010
v 34.702065 31.208551 -59.515083
v 34.742893 31.208551 -59.498398
v 37.107105 31.543795 -58.531693
v 37.053955 31.227757 -58.585297
v 37.116238 31.227757 -58.610741
v 39.437386 31.527811 -59.555763
v 39.365944 31.208483 -59.554245
v 39.389881 31.208483 -59.611259
v 40.367939 31.520056 -61.896919
v 40.313465 31.199080 -61.857162
v 40.297180 31.199080 -61.895943
v 39.318974 31.515306 -64.225929
v 39.332958 31.192909 -64.143379
v 39.273144 31.192909 -64.167824
v 36.904453 31.521652 -65.153145
v 36.989246 31.200888 -65.089775
v 36.916378 31.200888 -65.072701
v 34.575012 31.510881 -64.134773
v 34.665474 31.187893 -64.127525
v 34.644855 31.187893 -64.078423
v 36.974503 31.528082 -58.501534
v 36.985329 31.208551 -58.582100
v 36.952072 32.190113 -58.334595
v 36.963882 31.841501 -58.422501
v 36.908337 33.481052 -58.009079
v 36.941532 32.501247 -58.256142
v 36.887833 34.086136 -57.856499
v 36.902367 33.657234 -57.964653
v 36.866570 34.713665 -57.698265
v 36.877968 34.377316 -57.783081
v 39.358669 31.543795 -59.451721
v 39.312256 31.227757 -59.508072
v 39.454830 32.198586 -59.334976
v 39.404194 31.853785 -59.396454
v 39.642345 33.475410 -59.107315
v 39.500027 32.506321 -59.280106
v 39.730240 34.073872 -59.000610
v 39.667938 33.649662 -59.076241
v 39.821392 34.694538 -58.889946
v 39.772533 34.361870 -58.949257
v 40.381905 31.527811 -61.805229
v 40.311104 31.208483 -61.805229
v 40.528603 32.189423 -61.805229
v 40.451355 31.841032 -61.805229
v 40.814655 33.479546 -61.805229
v 40.597546 32.500362 -61.805229
v 40.948734 34.084240 -61.805229
v 40.853695 33.655613 -61.805229
v 41.087784 34.711372 -61.805229
v 41.013256 34.375233 -61.805229
v 39.363430 31.199080 -64.119759
v 39.456806 31.834898 -64.233131
v 39.554134 32.497627 -64.351295
v 39.724670 33.658840 -64.558342
v 39.830902 34.382172 -64.687309
v 37.029224 31.192911 -65.084724
v 37.007591 31.831535 -65.245766
v 36.985035 32.497200 -65.413612
v 36.945518 33.663544 -65.707710
v 36.920902 34.390076 -65.890907
v 34.697163 31.200886 -64.153191
v 34.560791 31.836283 -64.266472
v 34.418648 32.498581 -64.384560
v 34.169586 33.659031 -64.591469
v 34.014442 34.381893 -64.720360
v 33.709480 31.187893 -61.850739
v 33.524261 31.827692 -61.850739
v 33.331207 32.494583 -61.850739
v 32.992939 33.663078 -61.850739
v 32.782230 34.390945 -61.850739
v 33.425026 32.185833 -61.808487
v 33.949783 34.713669 -58.890121
v 36.936501 34.694534 -57.711128
v 32.691895 34.718334 -61.808487
v 33.049988 33.481354 -61.808487
v 32.874203 34.088577 -61.808487
v 39.880383 34.711372 -58.929680
v 41.094158 34.720043 -61.857162
v 39.852333 34.729439 -64.773949
v 36.870033 34.719536 -65.977013
v 33.905052 34.730934 -64.759254
v 34.084465 34.086140 -59.002007
v 36.957531 34.073868 -57.867630
v 39.788277 34.084240 -59.041496
v 40.954388 34.089672 -61.857162
v 39.759350 34.096287 -64.661049
v 36.891376 34.089584 -65.818169
v 34.041191 34.096615 -64.646156
v 34.214329 33.481056 -59.109894
v 36.977802 33.475407 -58.018532
v 39.699474 33.479546 -59.149315
v 40.819618 33.481861 -61.857162
v 39.669689 33.485786 -64.552193
v 36.911957 33.482170 -65.665001
v 34.172462 33.484989 -64.537102
v 34.491398 32.190117 -59.340073
v 37.021065 32.198582 -58.340492
v 39.510006 32.189423 -59.379341
v 40.532085 32.185085 -61.857162
v 39.478401 32.183273 -64.319969
v 36.955864 32.186241 -65.338234
v 34.452526 32.180077 -64.304436
v 33.617359 31.521452 -61.808487
v 34.633484 31.528082 -59.458115
v 37.043251 31.543795 -58.505600
v 39.412842 31.527811 -59.497307
v 40.384632 31.520056 -61.857162
v 39.380302 31.515306 -64.200859
v 36.978378 31.521652 -65.170647
v 34.596153 31.510881 -64.185112
v 39.410568 31.520056 -64.176994
v 39.508236 32.185085 -64.295570
v 39.698681 33.481861 -64.526787
v 39.787945 34.089672 -64.635155
v 39.880524 34.720043 -64.747551
v 37.018303 31.515308 -65.166023
v 36.995670 32.183273 -65.334450
v 36.951538 33.485786 -65.662880
v 36.930855 34.096287 -65.816826
v 36.909405 34.729439 -65.976479
v 34.628319 31.521650 -64.210381
v 34.485683 32.186241 -64.328865
v 34.207546 33.482170 -64.559944
v 34.077179 34.089584 -64.668236
v 33.941975 34.719536 -64.780556
v 33.615978 31.510881 -61.850739
v 33.422253 32.180077 -61.850739
v 33.044495 33.484989 -61.850739
v 32.867432 34.096615 -61.850739
v 32.683807 34.730934 -61.850739
vt 0.375000 0.640908
vt 0.250000 0.590029
vt 0.375000 0.590828
vt 0.377123 1.000000
vt 0.375000 0.951890
vt 0.377235 0.951886
vt 0.503489 1.000000
vt 0.500000 0.952258
vt 0.503447 0.952250
vt 0.375000 1.000000
vt 0.250000 0.951883
vt 0.375000 0.952167
vt 0.375000 0.826492
vt 0.250000 0.683776
vt 0.375000 0.685676
vt 0.375000 0.911395
vt 0.250000 0.849274
vt 0.375000 0.850672
vt 0.628126 1.000000
vt 0.625000 0.952430
vt 0.628166 0.952427
vt 0.751687 1.000000
vt 0.750000 0.952752
vt 0.752142 0.952739
vt 0.878226 1.000000
vt 0.875000 0.951767
vt 0.878246 0.951768
vt 0.001755 1.000000
vt 0.000000 0.951490
vt 0.002279 0.951505
vt 0.127891 1.000000
vt 0.125000 0.952257
vt 0.127696 0.952257
vt 0.377235 0.910411
vt 0.375000 0.849180
vt 0.377235 0.849183
vt 0.503447 0.910760
vt 0.500000 0.849650
vt 0.503447 0.849645
vt 0.628166 0.910647
vt 0.625000 0.849285
vt 0.628166 0.849283
vt 0.752142 0.911319
vt 0.750000 0.850071
vt 0.752142 0.850054
vt 0.878245 0.910172
vt 0.875000 0.848828
vt 0.878245 0.848824
vt 0.002279 0.910485
vt 0.000000 0.849322
vt 0.002279 0.849312
vt 0.127696 0.910409
vt 0.125000 0.849359
vt 0.127696 0.849351
vt 0.377235 0.824067
vt 0.375000 0.684312
vt 0.377235 0.684313
vt 0.503447 0.824676
vt 0.500000 0.684674
vt 0.503447 0.684669
vt 0.628166 0.823936
vt 0.625000 0.684233
vt 0.628166 0.684234
vt 0.752142 0.824506
vt 0.750000 0.684563
vt 0.752142 0.684553
vt 0.878245 0.823685
vt 0.875000 0.684108
vt 0.878245 0.684110
vt 0.002279 0.823657
vt 0.000000 0.684083
vt 0.002279 0.684083
vt 0.127696 0.823673
vt 0.125000 0.684086
vt 0.127696 0.684089
vt 0.377235 0.639905
vt 0.375000 0.590191
vt 0.377235 0.590191
vt 0.503447 0.640184
vt 0.500000 0.590375
vt 0.503447 0.590373
vt 0.628166 0.639830
vt 0.625000 0.590140
vt 0.628166 0.590140
vt 0.752142 0.640078
vt 0.750000 0.590302
vt 0.752142 0.590298
vt 0.878245 0.639766
vt 0.875000 0.590113
vt 0.878245 0.590114
vt 0.002279 0.639720
vt 0.000000 0.590077
vt 0.002279 0.590077
vt 0.127696 0.639737
vt 0.125000 0.590085
vt 0.127696 0.590087
vt 0.375001 0.545852
vt 0.250000 0.500000
vt 0.375000 0.500000
vt 0.377235 0.545531
vt 0.375000 0.500000
vt 0.377265 0.500000
vt 0.503446 0.545622
vt 0.500000 0.500000
vt 0.503434 0.500000
vt 0.628165 0.545505
vt 0.625000 0.500000
vt 0.628204 0.500000
vt 0.752142 0.545584
vt 0.750000 0.500000
vt 0.752251 0.500000
vt 0.878245 0.545492
vt 0.875000 0.500000
vt 0.878282 0.500000
vt 0.002278 0.545473
vt 0.000000 0.500000
vt 0.002236 0.500000
vt 0.127695 0.545478
vt 0.125000 0.500000
vt 0.127798 0.500000
vt 0.500001 0.545529
vt 0.500000 0.500000
vt 0.500000 0.639910
vt 0.500000 0.590189
vt 0.500000 0.824107
vt 0.500000 0.684330
vt 0.500000 0.910487
vt 0.500000 0.849311
vt 0.500000 1.000000
vt 0.500000 0.951633
vt 0.625001 0.545581
vt 0.625000 0.500000
vt 0.625000 0.640059
vt 0.625000 0.590292
vt 0.625000 0.824403
vt 0.625000 0.684512
vt 0.625000 0.910541
vt 0.625000 0.849480
vt 0.625000 1.000000
vt 0.625000 0.951995
vt 0.750001 0.545515
vt 0.750000 0.500000
vt 0.750000 0.639863
vt 0.750000 0.590160
vt 0.750000 0.824017
vt 0.750000 0.684278
vt 0.750000 0.910562
vt 0.750000 0.849195
vt 0.750000 1.000000
vt 0.750000 0.952299
vt 0.875000 0.500000
vt 0.875000 0.590053
vt 0.875000 0.684008
vt 0.875000 0.849066
vt 0.875000 0.952005
vt 1.000000 0.500000
vt 1.000000 0.590147
vt 1.000000 0.684174
vt 1.000000 0.848683
vt 1.000000 0.951805
vt 0.125000 0.500000
vt 0.125000 0.590070
vt 0.125000 0.684075
vt 0.125000 0.848767
vt 0.125000 0.952289
vt 0.250000 0.500000
vt 0.250000 0.590182
vt 0.250000 0.684222
vt 0.250000 0.848961
vt 0.250000 0.952258
vt 0.250000 0.639579
vt 0.375000 1.000000
vt 0.500000 1.000000
vt 0.250000 1.000000
vt 0.250000 0.823002
vt 0.250000 0.911201
vt 0.625000 1.000000
vt 0.750000 1.000000
vt 0.875000 1.000000
vt 0.000000 1.000000
vt 0.125000 1.000000
vt 0.375000 0.910410
vt 0.500000 0.910767
vt 0.625000 0.910649
vt 0.750000 0.911339
vt 0.875000 0.910177
vt 0.000000 0.910489
vt 0.125000 0.910400
vt 0.375000 0.824066
vt 0.500000 0.824683
vt 0.625000 0.823934
vt 0.750000 0.824524
vt 0.875000 0.823682
vt 0.000000 0.823657
vt 0.125000 0.823668
vt 0.375000 0.639905
vt 0.500000 0.640187
vt 0.625000 0.639829
vt 0.750000 0.640085
vt 0.875000 0.639765
vt 0.000000 0.639720
vt 0.125000 0.639734
vt 0.249999 0.545449
vt 0.374999 0.545531
vt 0.499999 0.545623
vt 0.624999 0.545505
vt 0.749999 0.545586
vt 0.874999 0.545491
vt -0.000001 0.545473
vt 0.124999 0.545477
vt 0.875001 0.545461
vt 0.875000 0.639675
vt 0.875000 0.823510
vt 0.875000 0.910189
vt 0.875000 1.000000
vt 1.000001 0.545509
vt 1.000000 0.639817
vt 1.000000 0.823796
vt 1.000000 0.909973
vt 1.000000 1.000000
vt 0.125001 0.545469
vt 0.125000 0.639715
vt 0.125000 0.823653
vt 0.125000 0.910279
vt 0.125000 1.000000
vt 0.250001 0.545526
vt 0.250000 0.639866
vt 0.250000 0.823872
vt 0.250000 0.910793
vt 0.250000 1.000000
vn -0.8908 -0.2579 0.3740
vn -0.3673 -0.2391 0.8988
vn -0.3671 -0.2391 0.8989
vn -0.3672 -0.2391 0.8989
vn 0.3694 -0.2154 0.9040
vn -0.8908 -0.2579 0.3741
vn 0.9033 -0.2003 0.3793
vn 0.9033 -0.2003 -0.3793
vn 0.3694 -0.2154 -0.9040
vn -0.3054 -0.2425 -0.9208
vn -0.2410 -0.2446 -0.9392
vn -0.3082 -0.2422 -0.9200
vn -0.8908 -0.2579 -0.3740
vn -0.3673 -0.2391 0.8989
vn -0.3674 -0.2391 0.8988
vn 0.3693 -0.2154 0.9040
vn 0.9033 -0.2003 0.3794
vn 0.9033 -0.2003 -0.3794
vn -0.3038 -0.2426 -0.9213
vn -0.2370 -0.2447 -0.9402
vn -0.3064 -0.2423 -0.9206
vn -0.8908 -0.2579 -0.3741
vn 0.3694 -0.2154 -0.9039
vn 0.3695 -0.2154 -0.9039
vn -0.3022 -0.2428 -0.9218
vn -0.2301 -0.2448 -0.9419
vn -0.3032 -0.2424 -0.9216
vn -0.8909 -0.2579 -0.3740
vn 0.3694 -0.2154 0.9039
vn 0.3693 -0.2154 -0.9040
vn -0.2984 -0.2429 -0.9230
vn -0.2259 -0.2449 -0.9429
vn -0.3013 -0.2425 -0.9222
vn -0.2963 -0.2429 -0.9237
vn -0.2214 -0.2450 -0.9439
vn -0.2992 -0.2426 -0.9228
vn -0.3715 -0.2396 -0.8970
vn -0.3713 -0.2396 -0.8971
vn -0.3710 -0.2394 -0.8972
vn -0.3708 -0.2395 -0.8973
vn -0.3707 -0.2395 -0.8973
vn -0.2423 -0.2449 -0.9388
vn -0.2391 -0.2450 -0.9396
vn 0.9034 -0.2003 -0.3793
vn -0.2356 -0.2451 -0.9404
vn 0.3695 -0.2154 0.9039
vn 0.3693 -0.2155 -0.9040
vn -0.2278 -0.2453 -0.9423
vn 0.9034 -0.2003 0.3793
vn -0.2234 -0.2454 -0.9433
vn -0.3710 -0.2396 -0.8972
vn -0.3708 -0.2396 -0.8973
usemtl Material.001
s 1
f 1/1/1 2/2/1 3/3/1
f 4/4/2 5/5/3 6/6/4
f 7/7/5 8/8/5 9/9/5
f 10/10/1 11/11/6 12/12/1
f 13/13/1 14/14/1 15/15/1
f 16/16/1 17/17/1 18/18/1
f 19/19/7 20/20/7 21/21/7
f 22/22/8 23/23/8 24/24/8
f 25/25/9 26/26/9 27/27/9
f 28/28/10 29/29/11 30/30/12
f 31/31/13 32/32/13 33/33/13
f 34/34/14 35/35/15 36/36/2
f 37/37/5 38/38/16 39/39/5
f 40/40/7 41/41/17 42/42/7
f 43/43/8 44/44/18 45/45/8
f 46/46/9 47/47/9 48/48/9
f 49/49/19 50/50/20 51/51/21
f 52/52/13 53/53/22 54/54/22
f 55/55/14 56/56/2 57/57/2
f 58/58/5 59/59/5 60/60/5
f 61/61/7 62/62/7 63/63/7
f 64/64/8 65/65/8 66/66/8
f 67/67/23 68/68/24 69/69/23
f 70/70/25 71/71/26 72/72/27
f 73/73/13 74/74/28 75/75/13
f 76/76/14 77/77/14 78/78/14
f 79/79/29 80/80/16 81/81/16
f 82/82/7 83/83/7 84/84/7
f 85/85/8 86/86/8 87/87/8
f 88/88/30 89/89/9 90/90/9
f 91/91/31 92/92/32 93/93/33
f 94/94/13 95/95/28 96/96/13
f 97/97/1 98/98/6 99/99/1
f 100/100/2 101/101/4 102/102/4
f 103/103/5 104/104/16 105/105/16
f 106/106/7 107/107/7 108/108/7
f 109/109/8 110/110/8 111/111/8
f 112/112/24 113/113/23 114/114/9
f 115/115/34 116/116/35 117/117/36
f 118/118/22 119/119/13 120/120/13
f 121/121/14 102/102/4 122/122/14
f 123/123/2 78/78/14 124/124/2
f 125/125/14 57/57/2 126/126/2
f 127/127/14 36/36/2 128/128/14
f 129/129/2 6/6/4 130/130/2
f 131/131/5 105/105/16 132/132/5
f 133/133/5 81/81/16 134/134/5
f 135/135/5 60/60/5 136/136/5
f 137/137/5 39/39/5 138/138/5
f 139/139/5 9/9/5 140/140/5
f 141/141/7 108/108/7 142/142/7
f 143/143/7 84/84/7 144/144/7
f 145/145/7 63/63/7 146/146/7
f 147/147/7 42/42/7 148/148/7
f 149/149/7 21/21/7 150/150/7
f 151/151/8 109/109/8 111/111/8
f 152/152/8 85/85/8 87/87/8
f 153/153/8 64/64/8 66/66/8
f 154/154/8 43/43/8 45/45/8
f 155/155/8 22/22/8 24/24/8
f 156/156/9 112/112/24 114/114/9
f 157/157/9 88/88/30 90/90/9
f 158/158/9 67/67/23 69/69/23
f 159/159/9 46/46/9 48/48/9
f 160/160/9 25/25/9 27/27/9
f 161/161/37 115/115/34 117/117/36
f 162/162/38 91/91/31 93/93/33
f 163/163/39 70/70/25 72/72/27
f 164/164/40 49/49/19 51/51/21
f 165/165/41 28/28/10 30/30/12
f 166/166/13 118/118/22 120/120/13
f 167/167/13 94/94/13 96/96/13
f 168/168/13 73/73/13 75/75/13
f 169/169/13 52/52/13 54/54/22
f 170/170/13 31/31/13 33/33/13
f 1/1/1 171/171/1 2/2/1
f 4/4/2 172/172/15 5/5/3
f 7/7/5 173/173/5 8/8/5
f 10/10/1 174/174/6 11/11/6
f 13/13/1 175/175/1 14/14/1
f 16/16/1 176/176/1 17/17/1
f 19/19/7 177/177/7 20/20/7
f 22/22/8 178/178/8 23/23/8
f 25/25/9 179/179/23 26/26/9
f 28/28/10 180/180/42 29/29/11
f 31/31/13 181/181/13 32/32/13
f 34/34/14 182/182/14 35/35/15
f 37/37/5 183/183/16 38/38/16
f 40/40/7 184/184/7 41/41/17
f 43/43/8 185/185/8 44/44/18
f 46/46/9 186/186/23 47/47/9
f 49/49/19 187/187/43 50/50/20
f 52/52/13 188/188/13 53/53/22
f 55/55/14 189/189/14 56/56/2
f 58/58/5 190/190/5 59/59/5
f 61/61/7 191/191/7 62/62/7
f 64/64/8 192/192/44 65/65/8
f 67/67/23 193/193/24 68/68/24
f 70/70/25 194/194/45 71/71/26
f 73/73/13 195/195/13 74/74/28
f 76/76/14 196/196/4 77/77/14
f 79/79/29 197/197/46 80/80/16
f 82/82/7 198/198/7 83/83/7
f 85/85/8 199/199/8 86/86/8
f 88/88/30 200/200/47 89/89/9
f 91/91/31 201/201/48 92/92/32
f 94/94/13 202/202/13 95/95/28
f 97/97/1 203/203/6 98/98/6
f 100/100/2 204/204/2 101/101/4
f 103/103/5 205/205/29 104/104/16
f 106/106/7 206/206/49 107/107/7
f 109/109/8 207/207/8 110/110/8
f 112/112/24 208/208/24 113/113/23
f 115/115/34 209/209/50 116/116/35
f 118/118/22 210/210/22 119/119/13
f 121/121/14 100/100/2 102/102/4
f 123/123/2 76/76/14 78/78/14
f 125/125/14 55/55/14 57/57/2
f 127/127/14 34/34/14 36/36/2
f 129/129/2 4/4/2 6/6/4
f 131/131/5 103/103/5 105/105/16
f 133/133/5 79/79/29 81/81/16
f 135/135/5 58/58/5 60/60/5
f 137/137/5 37/37/5 39/39/5
f 139/139/5 7/7/5 9/9/5
f 141/141/7 106/106/7 108/108/7
f 143/143/7 82/82/7 84/84/7
f 145/145/7 61/61/7 63/63/7
f 147/147/7 40/40/7 42/42/7
f 149/149/7 19/19/7 21/21/7
f 151/151/8 211/211/8 109/109/8
f 152/152/8 212/212/8 85/85/8
f 153/153/8 213/213/8 64/64/8
f 154/154/8 214/214/8 43/43/8
f 155/155/8 215/215/8 22/22/8
f 156/156/9 216/216/9 112/112/24
f 157/157/9 217/217/9 88/88/30
f 158/158/9 218/218/9 67/67/23
f 159/159/9 219/219/9 46/46/9
f 160/160/9 220/220/9 25/25/9
f 161/161/37 221/221/37 115/115/34
f 162/162/38 222/222/38 91/91/31
f 163/163/39 223/223/51 70/70/25
f 164/164/40 224/224/52 49/49/19
f 165/165/41 225/225/41 28/28/10
f 166/166/13 226/226/13 118/118/22
f 167/167/13 227/227/13 94/94/13
f 168/168/13 228/228/13 73/73/13
f 169/169/13 229/229/13 52/52/13
f 170/170/13 230/230/13 31/31/13
